<svg xmlns="http://www.w3.org/2000/svg" width="34" height="34" fill="none" viewBox="0 0 34 34"><g filter="url(#filter0_dd_36_604)"><mask id="mask0_36_604" style="mask-type:alpha" width="33" height="33" x="0" y="0" maskUnits="userSpaceOnUse"><path fill="url(#paint0_linear_36_604)" fill-rule="evenodd" d="M15.8572 1.18634C23.5948 -0.317702 29.5893 3.72565 31.0934 11.4633L31.9474 15.8572C33.4515 23.5948 29.4081 29.5893 21.6705 31.0934L17.2766 31.9475C9.53897 33.4515 3.54446 29.4082 2.04042 21.6705L1.18633 17.2766C-0.317716 9.53899 3.72563 3.54447 11.4633 2.04043L15.8572 1.18634Z" clip-rule="evenodd"/></mask><g mask="url(#mask0_36_604)"><path fill="url(#paint1_linear_36_604)" fill-rule="evenodd" d="M15.8572 1.18634C23.5948 -0.317702 29.5893 3.72565 31.0934 11.4633L31.9474 15.8572C33.4515 23.5948 29.4081 29.5893 21.6705 31.0934L17.2766 31.9475C9.53897 33.4515 3.54446 29.4082 2.04042 21.6705L1.18633 17.2766C-0.317716 9.53899 3.72563 3.54447 11.4633 2.04043L15.8572 1.18634Z" clip-rule="evenodd"/><path fill="#000" fill-opacity=".12" d="M5.17994 5.81604C2.91951 7.71576 1.74475 10.937 1.74475 12.6546C2.98523 12.4001 24.2961 8.07436 28.7173 7.12014C26.8725 3.81219 23.7236 2.38086 21.6243 1.90375C19.525 1.42664 17.3303 1.6811 13.8951 2.38086C10.3185 3.10943 8.16982 3.30327 5.17994 5.81604Z"/><circle cx="5.575" cy="15.471" r="1.018" fill="#000" fill-opacity=".12" transform="rotate(-11 5.57506 15.471)"/><circle cx="9.072" cy="14.791" r="1.018" fill="#000" fill-opacity=".12" transform="rotate(-11 9.07176 14.7913)"/><circle cx="12.569" cy="14.111" r="1.018" fill="#000" fill-opacity=".12" transform="rotate(-11 12.5687 14.1115)"/><circle cx="16.066" cy="13.432" r="1.018" fill="#000" fill-opacity=".12" transform="rotate(-11 16.0657 13.4318)"/><circle cx="19.563" cy="12.752" r="1.018" fill="#000" fill-opacity=".12" transform="rotate(-11 19.5626 12.7521)"/><circle cx="6.352" cy="19.468" r="1.018" fill="#000" fill-opacity=".12" transform="rotate(-11 6.35161 19.4676)"/><circle cx="9.849" cy="18.788" r="1.018" fill="#000" fill-opacity=".12" transform="rotate(-11 9.84856 18.7878)"/><circle cx="13.345" cy="18.108" r="1.018" fill="#000" fill-opacity=".12" transform="rotate(-11 13.3455 18.1081)"/><circle cx="16.843" cy="17.428" r="1.018" fill="#000" fill-opacity=".12" transform="rotate(-11 16.8425 17.4283)"/><circle cx="20.34" cy="16.749" r="1.018" fill="#000" fill-opacity=".12" transform="rotate(-11 20.3395 16.7486)"/><circle cx="23.836" cy="16.069" r="1.018" fill="#000" fill-opacity=".12" transform="rotate(-11 23.8364 16.0689)"/><circle cx="27.333" cy="15.389" r="1.018" fill="#000" fill-opacity=".12" transform="rotate(-11 27.3334 15.3891)"/><circle cx="7.128" cy="23.464" r="1.018" fill="#000" fill-opacity=".12" transform="rotate(-11 7.12846 23.4641)"/><circle cx="10.625" cy="22.784" r="1.018" fill="#000" fill-opacity=".12" transform="rotate(-11 10.6254 22.7843)"/><circle cx="14.122" cy="22.105" r="1.018" fill="#000" fill-opacity=".12" transform="rotate(-11 14.1224 22.1046)"/><circle cx="17.619" cy="21.425" r="1.018" fill="#000" fill-opacity=".12" transform="rotate(-11 17.6193 21.4249)"/><circle cx="21.116" cy="20.745" r="1.018" fill="#000" fill-opacity=".12" transform="rotate(-11 21.1163 20.7451)"/><circle cx="24.613" cy="20.065" r="1.018" fill="#000" fill-opacity=".12" transform="rotate(-11 24.6133 20.0654)"/><circle cx="28.11" cy="19.386" r="1.018" fill="#000" fill-opacity=".12" transform="rotate(-11 28.1102 19.3856)"/><circle cx="14.899" cy="26.101" r="1.018" fill="#000" fill-opacity=".12" transform="rotate(-11 14.8993 26.1011)"/><circle cx="11.385" cy="26.784" r="1.018" fill="#000" fill-opacity=".12" transform="rotate(-11 11.3849 26.7842)"/><circle cx="7.888" cy="27.464" r="1.018" fill="#000" fill-opacity=".12" transform="rotate(-11 7.88798 27.464)"/><circle cx="18.396" cy="25.421" r="1.018" fill="#000" fill-opacity=".12" transform="rotate(-11 18.3962 25.4214)"/><circle cx="21.893" cy="24.742" r="1.018" fill="#000" fill-opacity=".12" transform="rotate(-11 21.8932 24.7416)"/><circle cx="25.39" cy="24.062" r="1.018" fill="#000" fill-opacity=".12" transform="rotate(-11 25.3901 24.0619)"/><circle cx="28.887" cy="23.382" r="1.018" fill="#000" fill-opacity=".12" transform="rotate(-11 28.8871 23.3822)"/></g><g filter="url(#filter1_d_36_604)"><ellipse cx="16.562" cy="16.581" fill="#fff" rx="11.173" ry="11.351" transform="rotate(3 16.5624 16.581)"/></g><g filter="url(#filter2_d_36_604)"><rect width=".832" height="9.429" x="13.25" y="25.248" fill="#222" fill-opacity=".12" rx=".416" transform="rotate(-156.884 13.2498 25.2476)"/></g><g filter="url(#filter3_d_36_604)"><rect width=".832" height="9.429" x="22.953" y="22.971" fill="#222" fill-opacity=".12" rx=".416" transform="rotate(137.153 22.953 22.9712)"/></g><g filter="url(#filter4_d_36_604)"><rect width=".832" height="10.698" x="11.325" y="7.498" fill="#222" rx=".416" transform="rotate(-27 11.3253 7.4982)"/></g><g filter="url(#filter5_d_36_604)"><rect width="1.426" height="7.068" x="22.352" y="13.009" fill="#222" rx=".713" transform="rotate(63 22.352 13.0094)"/></g><g filter="url(#filter6_d_36_604)"><circle cx="16.559" cy="16.64" r="1.189" fill="#fff" transform="rotate(3 16.5594 16.6403)"/></g></g><defs><filter id="filter0_dd_36_604" width="31.637" height="31.764" x=".749" y=".748" color-interpolation-filters="sRGB" filterUnits="userSpaceOnUse"><feFlood flood-opacity="0" result="BackgroundImageFix"/><feColorMatrix in="SourceAlpha" result="hardAlpha" type="matrix" values="0 0 0 0 0 0 0 0 0 0 0 0 0 0 0 0 0 0 127 0"/><feOffset dy=".127"/><feGaussianBlur stdDeviation=".064"/><feColorMatrix type="matrix" values="0 0 0 0 0 0 0 0 0 0 0 0 0 0 0 0 0 0 0.08 0"/><feBlend in2="BackgroundImageFix" mode="normal" result="effect1_dropShadow_36_604"/><feColorMatrix in="SourceAlpha" result="hardAlpha" type="matrix" values="0 0 0 0 0 0 0 0 0 0 0 0 0 0 0 0 0 0 127 0"/><feOffset/><feGaussianBlur stdDeviation=".064"/><feColorMatrix type="matrix" values="0 0 0 0 0 0 0 0 0 0 0 0 0 0 0 0 0 0 0.28 0"/><feBlend in2="effect1_dropShadow_36_604" mode="normal" result="effect2_dropShadow_36_604"/><feBlend in="SourceGraphic" in2="effect2_dropShadow_36_604" mode="normal" result="shape"/></filter><filter id="filter1_d_36_604" width="24.682" height="25.037" x="4.221" y="4.063" color-interpolation-filters="sRGB" filterUnits="userSpaceOnUse"><feFlood flood-opacity="0" result="BackgroundImageFix"/><feColorMatrix in="SourceAlpha" result="hardAlpha" type="matrix" values="0 0 0 0 0 0 0 0 0 0 0 0 0 0 0 0 0 0 127 0"/><feOffset/><feGaussianBlur stdDeviation=".584"/><feColorMatrix type="matrix" values="0 0 0 0 0 0 0 0 0 0 0 0 0 0 0 0 0 0 0.12 0"/><feBlend in2="BackgroundImageFix" mode="normal" result="effect1_dropShadow_36_604"/><feBlend in="SourceGraphic" in2="effect1_dropShadow_36_604" mode="normal" result="shape"/></filter><filter id="filter2_d_36_604" width="6.109" height="10.641" x="11.664" y="15.428" color-interpolation-filters="sRGB" filterUnits="userSpaceOnUse"><feFlood flood-opacity="0" result="BackgroundImageFix"/><feColorMatrix in="SourceAlpha" result="hardAlpha" type="matrix" values="0 0 0 0 0 0 0 0 0 0 0 0 0 0 0 0 0 0 127 0"/><feOffset/><feGaussianBlur stdDeviation=".475"/><feColorMatrix type="matrix" values="0 0 0 0 0 0 0 0 0 0 0 0 0 0 0 0 0 0 0.08 0"/><feBlend in2="BackgroundImageFix" mode="normal" result="effect1_dropShadow_36_604"/><feBlend in="SourceGraphic" in2="effect1_dropShadow_36_604" mode="normal" result="shape"/></filter><filter id="filter3_d_36_604" width="8.58" height="9.037" x="15.152" y="15.279" color-interpolation-filters="sRGB" filterUnits="userSpaceOnUse"><feFlood flood-opacity="0" result="BackgroundImageFix"/><feColorMatrix in="SourceAlpha" result="hardAlpha" type="matrix" values="0 0 0 0 0 0 0 0 0 0 0 0 0 0 0 0 0 0 127 0"/><feOffset/><feGaussianBlur stdDeviation=".475"/><feColorMatrix type="matrix" values="0 0 0 0 0 0 0 0 0 0 0 0 0 0 0 0 0 0 0.08 0"/><feBlend in2="BackgroundImageFix" mode="normal" result="effect1_dropShadow_36_604"/><feBlend in="SourceGraphic" in2="effect1_dropShadow_36_604" mode="normal" result="shape"/></filter><filter id="filter4_d_36_604" width="7.213" height="11.524" x="10.518" y="6.313" color-interpolation-filters="sRGB" filterUnits="userSpaceOnUse"><feFlood flood-opacity="0" result="BackgroundImageFix"/><feColorMatrix in="SourceAlpha" result="hardAlpha" type="matrix" values="0 0 0 0 0 0 0 0 0 0 0 0 0 0 0 0 0 0 127 0"/><feOffset/><feGaussianBlur stdDeviation=".475"/><feColorMatrix type="matrix" values="0 0 0 0 0 0 0 0 0 0 0 0 0 0 0 0 0 0 0.08 0"/><feBlend in2="BackgroundImageFix" mode="normal" result="effect1_dropShadow_36_604"/><feBlend in="SourceGraphic" in2="effect1_dropShadow_36_604" mode="normal" result="shape"/></filter><filter id="filter5_d_36_604" width="8.355" height="5.89" x="15.35" y="12.304" color-interpolation-filters="sRGB" filterUnits="userSpaceOnUse"><feFlood flood-opacity="0" result="BackgroundImageFix"/><feColorMatrix in="SourceAlpha" result="hardAlpha" type="matrix" values="0 0 0 0 0 0 0 0 0 0 0 0 0 0 0 0 0 0 127 0"/><feOffset/><feGaussianBlur stdDeviation=".475"/><feColorMatrix type="matrix" values="0 0 0 0 0 0 0 0 0 0 0 0 0 0 0 0 0 0 0.08 0"/><feBlend in2="BackgroundImageFix" mode="normal" result="effect1_dropShadow_36_604"/><feBlend in="SourceGraphic" in2="effect1_dropShadow_36_604" mode="normal" result="shape"/></filter><filter id="filter6_d_36_604" width="4.755" height="4.755" x="14.182" y="14.263" color-interpolation-filters="sRGB" filterUnits="userSpaceOnUse"><feFlood flood-opacity="0" result="BackgroundImageFix"/><feColorMatrix in="SourceAlpha" result="hardAlpha" type="matrix" values="0 0 0 0 0 0 0 0 0 0 0 0 0 0 0 0 0 0 127 0"/><feOffset/><feGaussianBlur stdDeviation=".594"/><feColorMatrix type="matrix" values="0 0 0 0 0 0 0 0 0 0 0 0 0 0 0 0 0 0 0.12 0"/><feBlend in2="BackgroundImageFix" mode="normal" result="effect1_dropShadow_36_604"/><feBlend in="SourceGraphic" in2="effect1_dropShadow_36_604" mode="normal" result="shape"/></filter><linearGradient id="paint0_linear_36_604" x1="45.186" x2="10.909" y1="10.823" y2="-12.151" gradientUnits="userSpaceOnUse"><stop stop-color="#3374F6"/><stop offset="1" stop-color="#00D3ED"/></linearGradient><linearGradient id="paint1_linear_36_604" x1="45.186" x2="10.909" y1="10.823" y2="-12.151" gradientUnits="userSpaceOnUse"><stop stop-color="#3374F6"/><stop offset="1" stop-color="#00D3ED"/></linearGradient></defs></svg>