<svg width="34" height="34" viewBox="0 0 34 34" fill="none" xmlns="http://www.w3.org/2000/svg">
<g filter="url(#filter0_dd_36_604)">
<mask id="mask0_36_604" style="mask-type:alpha" maskUnits="userSpaceOnUse" x="0" y="0" width="33" height="33">
<path fill-rule="evenodd" clip-rule="evenodd" d="M15.8572 1.18634C23.5948 -0.317702 29.5893 3.72565 31.0934 11.4633L31.9474 15.8572C33.4515 23.5948 29.4081 29.5893 21.6705 31.0934L17.2766 31.9475C9.53897 33.4515 3.54446 29.4082 2.04042 21.6705L1.18633 17.2766C-0.317716 9.53899 3.72563 3.54447 11.4633 2.04043L15.8572 1.18634Z" fill="url(#paint0_linear_36_604)"/>
</mask>
<g mask="url(#mask0_36_604)">
<path fill-rule="evenodd" clip-rule="evenodd" d="M15.8572 1.18634C23.5948 -0.317702 29.5893 3.72565 31.0934 11.4633L31.9474 15.8572C33.4515 23.5948 29.4081 29.5893 21.6705 31.0934L17.2766 31.9475C9.53897 33.4515 3.54446 29.4082 2.04042 21.6705L1.18633 17.2766C-0.317716 9.53899 3.72563 3.54447 11.4633 2.04043L15.8572 1.18634Z" fill="url(#paint1_linear_36_604)"/>
<path d="M5.17994 5.81604C2.91951 7.71576 1.74475 10.937 1.74475 12.6546C2.98523 12.4001 24.2961 8.07436 28.7173 7.12014C26.8725 3.81219 23.7236 2.38086 21.6243 1.90375C19.525 1.42664 17.3303 1.6811 13.8951 2.38086C10.3185 3.10943 8.16982 3.30327 5.17994 5.81604Z" fill="black" fill-opacity="0.12"/>
<circle cx="5.57506" cy="15.471" r="1.01783" transform="rotate(-11 5.57506 15.471)" fill="black" fill-opacity="0.12"/>
<circle cx="9.07176" cy="14.7913" r="1.01783" transform="rotate(-11 9.07176 14.7913)" fill="black" fill-opacity="0.12"/>
<circle cx="12.5687" cy="14.1115" r="1.01783" transform="rotate(-11 12.5687 14.1115)" fill="black" fill-opacity="0.12"/>
<circle cx="16.0657" cy="13.4318" r="1.01783" transform="rotate(-11 16.0657 13.4318)" fill="black" fill-opacity="0.12"/>
<circle cx="19.5626" cy="12.7521" r="1.01783" transform="rotate(-11 19.5626 12.7521)" fill="black" fill-opacity="0.12"/>
<circle cx="6.35161" cy="19.4676" r="1.01783" transform="rotate(-11 6.35161 19.4676)" fill="black" fill-opacity="0.12"/>
<circle cx="9.84856" cy="18.7878" r="1.01783" transform="rotate(-11 9.84856 18.7878)" fill="black" fill-opacity="0.12"/>
<circle cx="13.3455" cy="18.1081" r="1.01783" transform="rotate(-11 13.3455 18.1081)" fill="black" fill-opacity="0.12"/>
<circle cx="16.8425" cy="17.4283" r="1.01783" transform="rotate(-11 16.8425 17.4283)" fill="black" fill-opacity="0.12"/>
<circle cx="20.3395" cy="16.7486" r="1.01783" transform="rotate(-11 20.3395 16.7486)" fill="black" fill-opacity="0.12"/>
<circle cx="23.8364" cy="16.0689" r="1.01783" transform="rotate(-11 23.8364 16.0689)" fill="black" fill-opacity="0.12"/>
<circle cx="27.3334" cy="15.3891" r="1.01783" transform="rotate(-11 27.3334 15.3891)" fill="black" fill-opacity="0.12"/>
<circle cx="7.12846" cy="23.4641" r="1.01783" transform="rotate(-11 7.12846 23.4641)" fill="black" fill-opacity="0.12"/>
<circle cx="10.6254" cy="22.7843" r="1.01783" transform="rotate(-11 10.6254 22.7843)" fill="black" fill-opacity="0.12"/>
<circle cx="14.1224" cy="22.1046" r="1.01783" transform="rotate(-11 14.1224 22.1046)" fill="black" fill-opacity="0.12"/>
<circle cx="17.6193" cy="21.4249" r="1.01783" transform="rotate(-11 17.6193 21.4249)" fill="black" fill-opacity="0.12"/>
<circle cx="21.1163" cy="20.7451" r="1.01783" transform="rotate(-11 21.1163 20.7451)" fill="black" fill-opacity="0.12"/>
<circle cx="24.6133" cy="20.0654" r="1.01783" transform="rotate(-11 24.6133 20.0654)" fill="black" fill-opacity="0.12"/>
<circle cx="28.1102" cy="19.3856" r="1.01783" transform="rotate(-11 28.1102 19.3856)" fill="black" fill-opacity="0.12"/>
<circle cx="14.8993" cy="26.1011" r="1.01783" transform="rotate(-11 14.8993 26.1011)" fill="black" fill-opacity="0.12"/>
<circle cx="11.3849" cy="26.7842" r="1.01783" transform="rotate(-11 11.3849 26.7842)" fill="black" fill-opacity="0.12"/>
<circle cx="7.88798" cy="27.464" r="1.01783" transform="rotate(-11 7.88798 27.464)" fill="black" fill-opacity="0.12"/>
<circle cx="18.3962" cy="25.4214" r="1.01783" transform="rotate(-11 18.3962 25.4214)" fill="black" fill-opacity="0.12"/>
<circle cx="21.8932" cy="24.7416" r="1.01783" transform="rotate(-11 21.8932 24.7416)" fill="black" fill-opacity="0.12"/>
<circle cx="25.3901" cy="24.0619" r="1.01783" transform="rotate(-11 25.3901 24.0619)" fill="black" fill-opacity="0.12"/>
<circle cx="28.8871" cy="23.3822" r="1.01783" transform="rotate(-11 28.8871 23.3822)" fill="black" fill-opacity="0.12"/>
</g>
<g filter="url(#filter1_d_36_604)">
<ellipse cx="16.5624" cy="16.581" rx="11.1731" ry="11.3513" transform="rotate(3 16.5624 16.581)" fill="white"/>
</g>
<g filter="url(#filter2_d_36_604)">
<rect x="13.2498" y="25.2476" width="0.832035" height="9.42917" rx="0.416018" transform="rotate(-156.884 13.2498 25.2476)" fill="#222222" fill-opacity="0.12"/>
</g>
<g filter="url(#filter3_d_36_604)">
<rect x="22.953" y="22.9712" width="0.832035" height="9.42917" rx="0.416018" transform="rotate(137.153 22.953 22.9712)" fill="#222222" fill-opacity="0.12"/>
</g>
<g filter="url(#filter4_d_36_604)">
<rect x="11.3253" y="7.4982" width="0.832036" height="10.6976" rx="0.416018" transform="rotate(-27 11.3253 7.4982)" fill="#222222"/>
</g>
<g filter="url(#filter5_d_36_604)">
<rect x="22.352" y="13.0094" width="1.42635" height="7.06765" rx="0.713173" transform="rotate(63 22.352 13.0094)" fill="#222222"/>
</g>
<g filter="url(#filter6_d_36_604)">
<circle cx="16.5594" cy="16.6403" r="1.18862" transform="rotate(3 16.5594 16.6403)" fill="white"/>
</g>
</g>
<defs>
<filter id="filter0_dd_36_604" x="0.748503" y="0.748488" width="31.6368" height="31.7641" filterUnits="userSpaceOnUse" color-interpolation-filters="sRGB">
<feFlood flood-opacity="0" result="BackgroundImageFix"/>
<feColorMatrix in="SourceAlpha" type="matrix" values="0 0 0 0 0 0 0 0 0 0 0 0 0 0 0 0 0 0 127 0" result="hardAlpha"/>
<feOffset dy="0.127229"/>
<feGaussianBlur stdDeviation="0.0636145"/>
<feColorMatrix type="matrix" values="0 0 0 0 0 0 0 0 0 0 0 0 0 0 0 0 0 0 0.08 0"/>
<feBlend mode="normal" in2="BackgroundImageFix" result="effect1_dropShadow_36_604"/>
<feColorMatrix in="SourceAlpha" type="matrix" values="0 0 0 0 0 0 0 0 0 0 0 0 0 0 0 0 0 0 127 0" result="hardAlpha"/>
<feOffset/>
<feGaussianBlur stdDeviation="0.0636145"/>
<feColorMatrix type="matrix" values="0 0 0 0 0 0 0 0 0 0 0 0 0 0 0 0 0 0 0.28 0"/>
<feBlend mode="normal" in2="effect1_dropShadow_36_604" result="effect2_dropShadow_36_604"/>
<feBlend mode="normal" in="SourceGraphic" in2="effect2_dropShadow_36_604" result="shape"/>
</filter>
<filter id="filter1_d_36_604" x="4.22138" y="4.06263" width="24.6821" height="25.0367" filterUnits="userSpaceOnUse" color-interpolation-filters="sRGB">
<feFlood flood-opacity="0" result="BackgroundImageFix"/>
<feColorMatrix in="SourceAlpha" type="matrix" values="0 0 0 0 0 0 0 0 0 0 0 0 0 0 0 0 0 0 127 0" result="hardAlpha"/>
<feOffset/>
<feGaussianBlur stdDeviation="0.583616"/>
<feColorMatrix type="matrix" values="0 0 0 0 0 0 0 0 0 0 0 0 0 0 0 0 0 0 0.12 0"/>
<feBlend mode="normal" in2="BackgroundImageFix" result="effect1_dropShadow_36_604"/>
<feBlend mode="normal" in="SourceGraphic" in2="effect1_dropShadow_36_604" result="shape"/>
</filter>
<filter id="filter2_d_36_604" x="11.6635" y="15.4278" width="6.10931" height="10.6409" filterUnits="userSpaceOnUse" color-interpolation-filters="sRGB">
<feFlood flood-opacity="0" result="BackgroundImageFix"/>
<feColorMatrix in="SourceAlpha" type="matrix" values="0 0 0 0 0 0 0 0 0 0 0 0 0 0 0 0 0 0 127 0" result="hardAlpha"/>
<feOffset/>
<feGaussianBlur stdDeviation="0.475449"/>
<feColorMatrix type="matrix" values="0 0 0 0 0 0 0 0 0 0 0 0 0 0 0 0 0 0 0.08 0"/>
<feBlend mode="normal" in2="BackgroundImageFix" result="effect1_dropShadow_36_604"/>
<feBlend mode="normal" in="SourceGraphic" in2="effect1_dropShadow_36_604" result="shape"/>
</filter>
<filter id="filter3_d_36_604" x="15.1517" y="15.279" width="8.58032" height="9.03699" filterUnits="userSpaceOnUse" color-interpolation-filters="sRGB">
<feFlood flood-opacity="0" result="BackgroundImageFix"/>
<feColorMatrix in="SourceAlpha" type="matrix" values="0 0 0 0 0 0 0 0 0 0 0 0 0 0 0 0 0 0 127 0" result="hardAlpha"/>
<feOffset/>
<feGaussianBlur stdDeviation="0.475449"/>
<feColorMatrix type="matrix" values="0 0 0 0 0 0 0 0 0 0 0 0 0 0 0 0 0 0 0.08 0"/>
<feBlend mode="normal" in2="BackgroundImageFix" result="effect1_dropShadow_36_604"/>
<feBlend mode="normal" in="SourceGraphic" in2="effect1_dropShadow_36_604" result="shape"/>
</filter>
<filter id="filter4_d_36_604" x="10.5178" y="6.313" width="7.21289" height="11.5243" filterUnits="userSpaceOnUse" color-interpolation-filters="sRGB">
<feFlood flood-opacity="0" result="BackgroundImageFix"/>
<feColorMatrix in="SourceAlpha" type="matrix" values="0 0 0 0 0 0 0 0 0 0 0 0 0 0 0 0 0 0 127 0" result="hardAlpha"/>
<feOffset/>
<feGaussianBlur stdDeviation="0.475449"/>
<feColorMatrix type="matrix" values="0 0 0 0 0 0 0 0 0 0 0 0 0 0 0 0 0 0 0.08 0"/>
<feBlend mode="normal" in2="BackgroundImageFix" result="effect1_dropShadow_36_604"/>
<feBlend mode="normal" in="SourceGraphic" in2="effect1_dropShadow_36_604" result="shape"/>
</filter>
<filter id="filter5_d_36_604" x="15.3496" y="12.3044" width="8.35492" height="5.88954" filterUnits="userSpaceOnUse" color-interpolation-filters="sRGB">
<feFlood flood-opacity="0" result="BackgroundImageFix"/>
<feColorMatrix in="SourceAlpha" type="matrix" values="0 0 0 0 0 0 0 0 0 0 0 0 0 0 0 0 0 0 127 0" result="hardAlpha"/>
<feOffset/>
<feGaussianBlur stdDeviation="0.475449"/>
<feColorMatrix type="matrix" values="0 0 0 0 0 0 0 0 0 0 0 0 0 0 0 0 0 0 0.08 0"/>
<feBlend mode="normal" in2="BackgroundImageFix" result="effect1_dropShadow_36_604"/>
<feBlend mode="normal" in="SourceGraphic" in2="effect1_dropShadow_36_604" result="shape"/>
</filter>
<filter id="filter6_d_36_604" x="14.1821" y="14.2631" width="4.7545" height="4.75455" filterUnits="userSpaceOnUse" color-interpolation-filters="sRGB">
<feFlood flood-opacity="0" result="BackgroundImageFix"/>
<feColorMatrix in="SourceAlpha" type="matrix" values="0 0 0 0 0 0 0 0 0 0 0 0 0 0 0 0 0 0 127 0" result="hardAlpha"/>
<feOffset/>
<feGaussianBlur stdDeviation="0.594311"/>
<feColorMatrix type="matrix" values="0 0 0 0 0 0 0 0 0 0 0 0 0 0 0 0 0 0 0.12 0"/>
<feBlend mode="normal" in2="BackgroundImageFix" result="effect1_dropShadow_36_604"/>
<feBlend mode="normal" in="SourceGraphic" in2="effect1_dropShadow_36_604" result="shape"/>
</filter>
<linearGradient id="paint0_linear_36_604" x1="45.1858" y1="10.823" x2="10.9094" y2="-12.1514" gradientUnits="userSpaceOnUse">
<stop stop-color="#3374F6"/>
<stop offset="1" stop-color="#00D3ED"/>
</linearGradient>
<linearGradient id="paint1_linear_36_604" x1="45.1858" y1="10.823" x2="10.9094" y2="-12.1514" gradientUnits="userSpaceOnUse">
<stop stop-color="#3374F6"/>
<stop offset="1" stop-color="#00D3ED"/>
</linearGradient>
</defs>
</svg>
