<svg width="13" height="13" viewBox="0 0 13 13" fill="none" xmlns="http://www.w3.org/2000/svg">
<path d="M9.1 2.97991e-08L3.9 1.2771e-08C1.74915 5.7278e-09 -5.7278e-09 1.74915 -1.2771e-08 3.9L-4.04416e-08 12.35C-4.10061e-08 12.5224 0.0684819 12.6877 0.190381 12.8096C0.312279 12.9315 0.477609 13 0.65 13L9.1 13C11.2508 13 13 11.2508 13 9.1L13 3.9C13 1.74915 11.2508 3.68423e-08 9.1 2.97991e-08ZM4.54935 9.75L3.25 9.75L3.25 8.45065L6.8445 4.86135L8.14385 6.1607L4.54935 9.75ZM8.7568 5.54775L7.45745 4.2484L8.44805 3.25845L9.7474 4.5578L8.7568 5.54775Z" fill="#3D73DD"/>
</svg>
