<svg width="55" height="55" viewBox="0 0 55 55" fill="none" xmlns="http://www.w3.org/2000/svg">
<path d="M39.546 42.4075C47.8798 35.6541 49.1609 23.4235 42.4075 15.0897C35.6541 6.75587 23.4235 5.47469 15.0897 12.2281C6.75592 18.9815 5.47475 31.2121 12.2282 39.5459C18.9816 47.8797 31.2122 49.1609 39.546 42.4075Z" fill="white"/>
<path d="M10.0691 35.9977C10.0691 35.9977 10.1287 36.0872 10.2332 36.2663C10.3451 36.4603 10.4944 36.7214 10.6958 37.0721C10.8003 37.2512 10.9122 37.4452 11.0316 37.669C11.1659 37.8779 11.33 38.1018 11.5017 38.348C11.8449 38.833 12.2254 39.4075 12.7552 39.9746C13.7326 41.1759 15.1503 42.4593 16.9859 43.6606C18.8214 44.8545 21.1419 45.8991 23.8579 46.4214C26.559 46.9288 29.6704 46.9661 32.7893 46.0632C33.5579 45.8095 34.3637 45.6006 35.1173 45.235C35.4979 45.0634 35.8933 44.9142 36.2739 44.7202C36.6469 44.5112 37.02 44.3023 37.3931 44.0934C37.5796 43.9814 37.7736 43.8919 37.9527 43.7725L38.4899 43.3995C38.8481 43.1458 39.2137 42.907 39.5644 42.6309C40.2285 42.0415 40.9522 41.4968 41.5491 40.8103C42.2058 40.1761 42.7504 39.4299 43.325 38.6987C43.5936 38.3182 43.8324 37.9152 44.0861 37.5198C44.3547 37.1318 44.5711 36.7065 44.78 36.2812C45.2501 35.4455 45.5709 34.5352 45.9291 33.6323C46.1977 32.6997 46.4961 31.7595 46.6379 30.7746C46.9662 28.8271 47.0856 26.7827 46.7647 24.7606C46.4737 22.7386 45.8619 20.7314 44.9591 18.8287C44.004 16.9559 42.7878 15.2472 41.3626 13.7773C40.9895 13.4266 40.6239 13.0684 40.2583 12.7177C39.8554 12.4044 39.4599 12.091 39.0645 11.7851C38.8705 11.6209 38.6616 11.4791 38.4452 11.3523L37.8109 10.9494L37.1767 10.5464L36.5126 10.2107C35.6471 9.72568 34.7219 9.38991 33.8116 9.03175C32.8789 8.76314 31.9611 8.46468 31.0135 8.32291C30.5434 8.23338 30.0808 8.14384 29.6107 8.11399C29.1407 8.07668 28.6706 8.017 28.208 8.00207C27.2753 8.00954 26.3501 7.98714 25.4472 8.12145C24.5369 8.18114 23.6639 8.41246 22.7909 8.58407C22.3582 8.69599 21.9478 8.84522 21.5225 8.97206L20.8957 9.16607C20.6868 9.23322 20.4928 9.33022 20.2988 9.4123C19.9033 9.58391 19.5079 9.75552 19.1199 9.91968C18.7393 10.0988 18.3737 10.3226 18.0081 10.5241C17.2545 10.8971 16.5979 11.4045 15.9338 11.8597C13.3148 13.7847 11.442 16.2694 10.2034 18.7242C8.96476 21.194 8.3753 23.6712 8.20369 25.85C8.03954 28.0362 8.18876 29.9464 8.54691 31.4536C8.67376 32.2221 8.89759 32.8713 9.0692 33.4383C9.15874 33.7219 9.23337 33.9905 9.31545 34.2218C9.41245 34.4531 9.50199 34.662 9.5766 34.8486C9.72583 35.2216 9.8452 35.5052 9.93474 35.7066C10.0168 35.9006 10.0467 36.0051 10.0467 36.0051C10.0467 36.0051 9.99445 35.9081 9.90491 35.7216C9.81537 35.5201 9.68852 35.2366 9.52437 34.871C9.44229 34.6844 9.3453 34.4755 9.2483 34.2442C9.15876 34.0054 9.08414 33.7443 8.98714 33.4607C8.8006 32.8936 8.5693 32.237 8.43499 31.4685C8.06192 29.9613 7.89031 28.0362 8.03954 25.8351C8.20369 23.6339 8.77822 21.1269 10.0168 18.6273C11.2629 16.1426 13.1357 13.6206 15.7846 11.6657C16.4636 11.2031 17.1202 10.6882 17.8812 10.3077C18.2543 10.1062 18.6199 9.88237 19.0079 9.69583C19.4034 9.52421 19.7989 9.3526 20.2018 9.18098C20.4032 9.09891 20.5972 9.00191 20.8062 8.92729L21.4404 8.72583C21.8657 8.59898 22.2835 8.44229 22.7238 8.33037C23.6042 8.15876 24.4921 7.92 25.4174 7.8603C26.3351 7.726 27.2678 7.74838 28.2154 7.73346C28.6855 7.74838 29.163 7.80807 29.6406 7.84538C30.1181 7.86776 30.5882 7.9573 31.0657 8.0543C32.0283 8.19607 32.9535 8.49453 33.9086 8.77061C34.8263 9.13622 35.7665 9.47198 36.6469 9.96444L37.3185 10.3077L37.9602 10.7106L38.6019 11.121C38.8182 11.2553 39.0346 11.3971 39.2286 11.5612C39.6315 11.8746 40.0345 12.1954 40.4449 12.5088C40.8179 12.867 41.191 13.2251 41.5715 13.5833C43.0191 15.0681 44.2577 16.7992 45.2277 18.7019C46.1454 20.6269 46.7647 22.6639 47.0557 24.7158C47.3766 26.7752 47.2572 28.8421 46.9214 30.8194C46.7722 31.8192 46.4663 32.7668 46.1977 33.7144C45.8321 34.6322 45.5037 35.5574 45.0337 36.4006C44.8173 36.8333 44.6009 37.2661 44.3323 37.6541C44.0711 38.057 43.8249 38.4674 43.5563 38.8479C42.9743 39.5941 42.4147 40.3477 41.7506 40.9894C41.1388 41.6833 40.4075 42.2429 39.736 42.8324C39.3778 43.1085 39.0048 43.3472 38.6466 43.6084L38.1019 43.9889C37.9154 44.1083 37.7214 44.2053 37.5274 44.3172C37.1469 44.5261 36.7663 44.7425 36.3858 44.9515C36.0053 45.1455 35.6023 45.2947 35.2143 45.4738C34.4458 45.8394 33.6399 46.0557 32.8565 46.3094C29.6928 47.2123 26.5515 47.1675 23.8206 46.6377C21.0822 46.1005 18.7468 45.0261 16.9038 43.8173C15.0608 42.5936 13.6431 41.2878 12.6806 40.0642C12.1508 39.4896 11.7777 38.9076 11.442 38.4152C11.2778 38.1689 11.1137 37.9451 10.9793 37.7287C10.86 37.5049 10.7481 37.3034 10.6511 37.1243C10.4645 36.7736 10.3153 36.4976 10.2108 36.3036C10.1138 36.117 10.0691 36.02 10.0691 36.02V35.9977Z" fill="#263238"/>
<path d="M15.3667 42.4891C15.3667 42.4891 16.2919 42.1832 19.4855 41.1983C22.679 40.2134 33.1624 41.6833 33.1624 41.6833L39.1614 42.9219C39.1614 42.9219 34.8935 47.3167 26.6933 46.7571C18.4931 46.1975 15.3518 42.4891 15.3518 42.4891H15.3667Z" fill="#3D73DD"/>
<path d="M37.7437 17.523C38.945 17.62 40.1389 16.6947 40.3478 15.5084C40.5642 14.322 39.7658 13.0461 38.6093 12.7103C39.3256 11.9194 39.4673 10.6658 38.945 9.74062C38.4227 8.81539 37.2737 8.28563 36.2291 8.48709C36.147 7.44248 35.4829 6.45756 34.5427 5.98748C33.6026 5.51741 32.4162 5.58456 31.5358 6.15163C30.3419 5.19656 28.4691 5.22642 27.3051 6.2188C26.2754 6.06957 25.186 6.65155 24.7383 7.58424C24.2906 8.52439 24.5294 9.73316 25.2979 10.4345" fill="#263238"/>
<path d="M33.7742 42.0788L33.6847 37.766C33.6847 37.766 39.4599 36.699 39.333 31.1104C39.2734 28.4093 38.6914 22.8579 38.1168 17.8438C37.4901 12.4566 32.8341 8.44978 27.4096 8.64378L26.8723 8.66616C21.0748 9.21085 18.2916 14.4339 18.993 20.2166L19.8287 41.1983C19.8287 41.1983 27.1559 45.0932 28.7974 44.5262C30.4389 43.9591 33.7742 42.0788 33.7742 42.0788Z" fill="#AE7461"/>
<path d="M33.6772 37.766C33.6772 37.766 30.3867 38.0943 26.5515 35.8633C26.5515 35.8633 28.1259 39.9523 33.6772 39.2583V37.766Z" fill="#6F4439"/>
<path d="M35.8485 23.4175C35.8784 23.8354 35.5426 24.2085 35.1098 24.2458C34.6696 24.2831 34.2891 23.9771 34.2592 23.5518C34.2294 23.134 34.5577 22.7609 34.9979 22.7162C35.4381 22.6788 35.8187 22.9848 35.8485 23.4101V23.4175Z" fill="#263238"/>
<path d="M37.0051 20.627C36.9081 20.7314 36.2888 20.3061 35.4307 20.3434C34.5726 20.3658 33.9608 20.8284 33.8638 20.724C33.819 20.6792 33.9086 20.4852 34.1772 20.2763C34.4383 20.0674 34.8935 19.8584 35.4307 19.8435C35.9679 19.8286 36.4231 20.0077 36.6842 20.2017C36.9528 20.3957 37.0498 20.5822 37.0051 20.627Z" fill="#263238"/>
<path d="M28.111 23.5444C28.1408 23.9622 27.805 24.3353 27.3723 24.3726C26.932 24.4099 26.5515 24.104 26.5217 23.6787C26.4918 23.2609 26.8276 22.8878 27.2603 22.8505C27.7006 22.8132 28.0811 23.1191 28.111 23.5444Z" fill="#263238"/>
<path d="M28.5735 21.0821C28.4765 21.1866 27.8572 20.7613 26.9992 20.7986C26.1411 20.821 25.5293 21.2836 25.4323 21.1791C25.3875 21.1343 25.477 20.9403 25.7456 20.7314C26.0068 20.5225 26.4619 20.3136 26.9992 20.2987C27.5364 20.2837 27.9916 20.4628 28.2527 20.6568C28.5213 20.8508 28.6183 21.0373 28.5735 21.0821Z" fill="#263238"/>
<path d="M31.9089 27.3423C31.9089 27.2901 32.4312 27.1856 33.2967 27.0438C33.5131 27.014 33.722 26.9618 33.7519 26.8125C33.7966 26.6559 33.6996 26.4171 33.5802 26.1708C33.3564 25.6485 33.1176 25.0964 32.8714 24.5219C31.8865 22.1789 31.1702 20.2464 31.2672 20.2091C31.3642 20.1718 32.2372 22.0372 33.2146 24.3876C33.4534 24.9696 33.6772 25.5142 33.8936 26.044C33.9832 26.2902 34.1399 26.5663 34.0354 26.9021C33.9832 27.0662 33.8265 27.1931 33.6847 27.2378C33.5429 27.2826 33.4235 27.2901 33.3116 27.305C32.4461 27.3796 31.9014 27.402 31.9014 27.3572L31.9089 27.3423Z" fill="#263238"/>
<path d="M28.7302 18.1497C28.6258 18.3736 27.8796 18.1646 26.9768 18.1646C26.0739 18.1497 25.3129 18.3437 25.2234 18.1199C25.186 18.0154 25.3353 17.8139 25.6561 17.6274C25.977 17.4409 26.462 17.2917 27.0066 17.2917C27.5513 17.2917 28.0289 17.4558 28.3348 17.6498C28.6407 17.8438 28.7825 18.0453 28.7377 18.1497H28.7302Z" fill="#263238"/>
<path d="M37.0051 17.5901C36.8335 17.7916 36.1172 17.6125 35.2665 17.6349C34.4159 17.6349 33.6996 17.8214 33.528 17.62C33.4534 17.523 33.5579 17.3215 33.8638 17.1275C34.1697 16.9335 34.6845 16.7619 35.2665 16.7619C35.8485 16.7619 36.3634 16.9186 36.6693 17.1051C36.9752 17.2917 37.0797 17.4931 37.0051 17.5901Z" fill="#263238"/>
<path d="M20.0749 25.6187C20.0077 24.7606 19.2467 24.104 18.3886 24.2159C17.3515 24.3503 16.2098 24.9845 16.3591 27.1334C16.6128 30.9462 20.3883 29.9016 20.3883 29.7972C20.3883 29.7225 20.2017 27.2155 20.0749 25.6262V25.6187Z" fill="#AE7461"/>
<path d="M19.4556 28.4168C19.4556 28.4168 19.3959 28.469 19.284 28.5287C19.1795 28.5884 18.993 28.6331 18.7915 28.5735C18.3811 28.4541 17.9932 27.8348 17.9335 27.1483C17.9036 26.8051 17.9484 26.4693 18.0528 26.1858C18.1498 25.9022 18.3215 25.6933 18.5155 25.6411C18.7169 25.5814 18.8662 25.6933 18.9184 25.7978C18.9781 25.9022 18.9557 25.9769 18.9781 25.9843C18.993 25.9918 19.0527 25.9172 19.0154 25.7605C18.993 25.6859 18.9408 25.5963 18.8512 25.5292C18.7542 25.462 18.6199 25.4322 18.4782 25.4546C18.1872 25.4919 17.9409 25.7829 17.8215 26.0888C17.6872 26.4022 17.6276 26.7752 17.6649 27.1707C17.7395 27.9392 18.1797 28.6331 18.7468 28.7525C19.0228 28.8048 19.2392 28.7078 19.3511 28.6108C19.4631 28.5063 19.478 28.4242 19.4631 28.4168H19.4556Z" fill="#6F4439"/>
<path d="M34.6621 10.0242C34.6248 9.92716 34.5726 9.83762 34.5204 9.75554C34.0876 9.12878 33.3415 8.76316 32.5804 8.74078C32.1178 8.52439 31.6551 8.35278 31.2224 8.22593C30.6553 7.33801 29.6779 6.71871 28.6183 6.6441C27.4245 6.56202 26.2157 7.18879 25.5666 8.18863C25.4099 8.21848 25.2532 8.24832 25.0965 8.27817C24.2907 7.73348 23.2535 7.54694 22.3133 7.80063C21.2613 8.07671 20.3659 8.89747 19.9854 9.9197C19.0452 9.71077 18.0006 10.1062 17.441 10.8822C16.8814 11.6582 16.8366 12.7775 17.3291 13.5982C16.6575 14.0161 16.0905 14.7174 16.1054 15.5084C16.1203 16.2545 16.8217 16.9559 17.538 16.844C17.4634 18.6795 17.7395 20.8284 17.9036 22.7236C18.0155 24.0592 19.7466 24.7905 19.8958 25.7008C20.6494 30.312 22.0746 27.7005 22.3283 18.0901C22.4253 18.0154 22.5148 17.9334 22.6118 17.8364C22.8058 17.6498 22.8431 17.4185 23.0147 17.2096C23.2162 16.9559 23.6042 17.023 23.925 17.0454C25.0368 17.1275 26.1486 16.2993 26.3948 15.2099C26.6932 15.6203 27.3499 15.583 27.7752 15.292C28.193 15.001 28.4542 14.5384 28.775 14.1429C29.0959 13.7475 29.5585 13.3893 30.0659 13.4415C30.3494 13.4714 30.618 13.6281 30.9015 13.5982C31.4015 13.5385 31.6253 12.9416 31.685 12.4417C31.7372 12.0238 31.7745 11.5388 32.0282 11.2329C32.3267 11.0837 32.6401 10.9643 32.9908 10.9195C33.1848 10.9345 33.3788 10.9643 33.5578 10.9867C33.6474 10.9942 33.7369 10.9942 33.8265 10.9867C33.9384 11.0165 34.0578 11.0613 34.1772 11.1135C35.8933 11.8746 37.4901 15.3144 37.4901 15.3144C37.5274 13.0983 36.2589 11.2926 34.6696 10.0242H34.6621Z" fill="#263238"/>
<path d="M23.2088 9.44216C23.2088 9.44216 23.2162 9.40485 23.2461 9.3377C23.2759 9.27054 23.3282 9.17355 23.4028 9.06162C23.5595 8.83032 23.8206 8.50947 24.2534 8.24085C24.6787 7.97224 25.2831 7.75586 25.977 7.81555C26.656 7.86778 27.4096 8.18862 27.9468 8.80792H27.8349C28.0886 8.53931 28.3796 8.29309 28.7154 8.09163C29.5137 7.5917 30.4763 7.44247 31.2746 7.66631C32.073 7.86777 32.6849 8.39755 32.946 8.95716C33.2221 9.51678 33.2296 10.0465 33.1699 10.3748C33.14 10.5465 33.0953 10.6733 33.058 10.7554C33.0206 10.8375 32.9982 10.8748 32.9908 10.8748C32.9759 10.8748 33.0654 10.6957 33.1027 10.3674C33.1475 10.0391 33.1176 9.53169 32.8416 9.00939C32.573 8.47962 31.991 7.99462 31.2299 7.80808C30.4688 7.60662 29.5585 7.7484 28.79 8.2334C28.4691 8.42739 28.1856 8.66616 27.9394 8.91985L27.8797 8.97955L27.8274 8.91238C27.3201 8.32293 26.6112 8.00955 25.9621 7.94985C25.3054 7.8827 24.7234 8.0767 24.3056 8.32293C23.8803 8.56916 23.6117 8.87508 23.4475 9.08401C23.2834 9.30039 23.2162 9.4347 23.2013 9.4347L23.2088 9.44216Z" fill="white"/>
<path d="M16.8441 13.8146C16.8441 13.8146 16.8515 13.7922 16.8739 13.7549C16.8963 13.7176 16.9336 13.6654 16.9933 13.5982C17.1052 13.4714 17.2918 13.2998 17.5753 13.1431C17.8589 12.9938 18.2394 12.8595 18.6945 12.8595C19.1422 12.8521 19.6794 12.9789 20.1271 13.3371L20.0227 13.3744C20.1719 12.6208 20.7241 11.8671 21.5374 11.412C21.9403 11.1807 22.4029 11.0165 22.8953 10.9494C23.3878 10.8822 23.9026 10.9046 24.41 11.0016C25.4024 11.1956 26.268 11.6433 27.0066 12.1134L26.8947 12.1507C27.2156 11.2702 27.8722 10.6285 28.5512 10.2853C29.2451 9.93462 29.9539 9.89731 30.4986 9.97939C31.0508 10.0615 31.4612 10.2629 31.7223 10.4196C31.8492 10.5017 31.9462 10.5688 32.0059 10.6211C32.0655 10.6733 32.0954 10.6957 32.0954 10.7032C32.0954 10.7106 31.9611 10.6061 31.6999 10.4644C31.4388 10.3226 31.0359 10.1435 30.4912 10.0689C29.9539 10.0018 29.2675 10.0465 28.6109 10.3972C27.9542 10.733 27.335 11.3598 27.0365 12.2029L27.0066 12.2925L26.9246 12.2402C26.1933 11.7776 25.3353 11.3448 24.3727 11.1583C23.8803 11.0613 23.3878 11.0389 22.9103 11.1061C22.4402 11.1732 21.9925 11.3299 21.6045 11.5463C20.8211 11.9791 20.2913 12.6954 20.1421 13.4117L20.1197 13.5161L20.0376 13.449C19.6198 13.1058 19.1124 12.9714 18.6796 12.9714C18.2394 12.964 17.8663 13.0834 17.5902 13.2177C17.0306 13.5012 16.8441 13.837 16.8292 13.8221L16.8441 13.8146Z" fill="white"/>
<path d="M32.0506 10.9718C32.0506 10.9718 32.0282 11.024 31.9909 11.121C31.9536 11.218 31.9014 11.3672 31.8641 11.5687C31.8193 11.7702 31.782 12.0164 31.7298 12.2999C31.6701 12.5835 31.6179 12.9342 31.3866 13.255C31.2672 13.4117 31.0732 13.5311 30.8568 13.5609C30.6404 13.5908 30.424 13.5609 30.2077 13.5385C29.9913 13.5236 29.76 13.5161 29.5585 13.6057C29.357 13.7027 29.178 13.8668 29.0213 14.0534C28.8571 14.2399 28.7079 14.4488 28.5437 14.6652C28.387 14.8742 28.2378 15.1204 27.9916 15.292C27.7528 15.4636 27.4618 15.5681 27.1633 15.6054C27.0141 15.6203 26.8574 15.6278 26.7007 15.5904C26.544 15.5606 26.3799 15.4785 26.2829 15.3293L26.4247 15.2994C26.3799 15.5233 26.3053 15.7471 26.1934 15.9486C26.074 16.15 25.9247 16.344 25.7457 16.5082C25.38 16.829 24.9174 17.038 24.425 17.12C24.2235 17.1574 24.0146 17.1648 23.8131 17.1648C23.6042 17.1499 23.4251 17.12 23.261 17.1872C23.0894 17.2469 22.97 17.3663 22.8655 17.523C22.7536 17.6797 22.6268 17.8289 22.4925 17.9632C21.9627 18.5079 21.2837 18.9183 20.5599 18.9481C19.8436 18.9556 19.2019 18.6422 18.7393 18.2393C18.2767 17.8289 17.9782 17.314 17.8514 16.8141L17.9186 16.8514C17.4336 16.9708 16.9709 16.8291 16.665 16.5978C16.3516 16.3665 16.2024 16.0456 16.1352 15.7919C16.0755 15.5307 16.0905 15.3218 16.1203 15.1875C16.1353 15.1204 16.1502 15.0682 16.1651 15.0383C16.18 15.0085 16.1875 14.9861 16.1875 14.9861C16.2099 14.9861 16.0681 15.2771 16.1949 15.777C16.2621 16.0232 16.4188 16.3217 16.7172 16.5306C17.0082 16.7395 17.4485 16.8664 17.8887 16.747L17.9409 16.7321L17.9559 16.7843C18.0827 17.2618 18.3737 17.7543 18.8214 18.1423C19.2691 18.5228 19.8809 18.8138 20.5525 18.7989C21.2165 18.769 21.8732 18.3736 22.3805 17.8438C22.5074 17.7095 22.6342 17.5677 22.7387 17.4185C22.8357 17.2618 23.0073 17.0902 23.2088 17.023C23.3132 16.9857 23.4177 16.9708 23.5221 16.9708L23.8206 16.9932C24.0146 16.9932 24.2086 16.9932 24.4026 16.9484C24.8652 16.8738 25.3054 16.6724 25.6412 16.3814C25.8054 16.2321 25.9471 16.0531 26.0591 15.8665C26.1635 15.6725 26.2307 15.4711 26.2754 15.2621L26.3127 15.0831L26.4097 15.2323C26.5515 15.4487 26.8798 15.4785 27.1484 15.4412C27.4245 15.4114 27.6931 15.3144 27.9095 15.1651C28.1259 15.0159 28.2677 14.7846 28.4318 14.5682C28.596 14.3593 28.7526 14.1504 28.9168 13.9564C29.0884 13.7624 29.275 13.5833 29.5063 13.4788C29.745 13.3744 29.9913 13.3893 30.2151 13.4042C30.439 13.4266 30.6479 13.4565 30.8419 13.4341C31.0359 13.4117 31.2 13.3147 31.3045 13.1729C31.5209 12.8894 31.5806 12.5462 31.6477 12.2626C31.7074 11.9791 31.7522 11.7329 31.8044 11.5314C31.8566 11.3299 31.9163 11.1807 31.9611 11.0837C32.0133 10.9867 32.0432 10.9419 32.0432 10.9419L32.0506 10.9718Z" fill="#455A64"/>
<path d="M29.2899 28.9316C28.9766 29.924 29.2676 30.9835 30.1779 31.4835C30.4913 31.6551 30.8867 31.6924 31.2299 31.5879C31.6478 31.4536 32.0358 31.2298 32.1925 30.7895C32.3417 30.3792 32.4686 29.9464 32.4163 29.5136C31.5433 29.3271 30.1629 29.1256 29.2899 28.9391V28.9316Z" fill="#6F4439"/>
<path d="M32.0656 31.0432C32.0656 31.0432 32.0059 31.1477 31.8417 31.2745C31.6776 31.4014 31.4015 31.5506 31.0284 31.5879C30.6553 31.6327 30.1778 31.5282 29.7898 31.2148C29.3943 30.9089 29.0959 30.3866 29.0586 29.8121C29.0362 29.5211 29.0586 29.2301 29.1332 28.9689L29.1481 28.9018L29.2153 28.9167C30.1181 29.0808 30.9016 29.2301 31.4612 29.342C32.0208 29.4539 32.3566 29.5285 32.3566 29.5509C32.3566 29.5658 32.0133 29.5285 31.4463 29.439C30.8792 29.3495 30.0883 29.2226 29.1854 29.0659L29.275 29.0062C29.2078 29.2524 29.1854 29.5285 29.2078 29.7972C29.2526 30.3344 29.5137 30.8119 29.8793 31.1029C30.2375 31.4014 30.6703 31.5058 31.021 31.476C31.3716 31.4536 31.6477 31.3267 31.8119 31.2223C31.9835 31.1104 32.0581 31.0283 32.0656 31.0432Z" fill="#263238"/>
</svg>
