<svg width="44" height="51" viewBox="0 0 44 51" fill="none" xmlns="http://www.w3.org/2000/svg">
<path d="M24.4563 45.5163C34.8208 43.9451 41.9492 34.2693 40.378 23.9049C38.8069 13.5404 29.1311 6.41197 18.7666 7.98315C8.40208 9.55434 1.2737 19.2301 2.84488 29.5946C4.41606 39.9591 14.0918 47.0875 24.4563 45.5163Z" fill="#F5F5F5"/>
<path d="M38.0572 23.0819L38.2735 31.1657L35.3897 26.7251L28.633 26.6603L30.1438 29.3359C31.7194 31.6738 32.6789 33.6413 34.7519 35.8873C35.787 37.0062 36.7491 38.5683 37.2194 38.8981C38.3437 39.6845 40.0329 40.3197 41.5032 39.0467C43.5518 37.2737 43.3059 33.863 42.6599 30.3792C41.9437 26.5116 41.5653 22.7819 41.5653 22.7819L38.0545 23.0792L38.0572 23.0819Z" fill="#FFBF9D"/>
<path d="M38.8544 18.19C38.8544 18.19 38.2328 16.9873 37.7382 17.0955C37.2436 17.2036 36.576 17.6468 36.495 18.0495C36.4139 18.4522 36.522 18.8171 36.7085 18.8009C36.895 18.7873 37.4409 18.4252 37.4409 18.4252L38.0733 19.3144L37.7923 20.4387L37.1328 20.7765L36.7544 19.99L36.9085 19.1036C36.9085 19.1036 36.4598 18.7225 36.2112 19.4333C35.9625 20.1441 35.6761 21.4225 36.3896 22.0414C37.1031 22.6603 38.4544 23.4981 38.4544 23.4981L41.6868 23.2225L42.4625 19.4171C42.4625 19.4171 43.7544 18.1063 43.8355 17.5711C43.9193 17.036 43.9895 15.3982 43.9895 15.3982C43.9895 15.3982 43.603 15.109 43.3787 15.563C43.1544 16.0171 42.9382 17.336 42.9382 17.336L41.8598 18.3765L42.2841 13.7117C42.2841 13.7117 41.6355 13.2901 41.3679 14.3387C41.103 15.3874 40.8112 17.9792 40.6787 17.9792C40.5463 17.9792 40.1544 17.9792 40.2112 17.4387C40.2679 16.8982 40.0895 12.7414 40.0895 12.7414C40.0895 12.7414 39.1544 12.9441 39.2139 13.8225C39.2706 14.7009 39.2382 17.4495 39.222 17.6549C39.2058 17.8603 38.8544 18.1846 38.8544 18.1846V18.19Z" fill="#FFBF9D"/>
<path d="M38.8546 35.1305C38.814 35.1413 38.6086 34.2629 38.4573 33.1494C38.3059 32.0386 38.2681 31.1251 38.3113 31.1224C38.3546 31.117 38.46 32.017 38.6113 33.1224C38.76 34.2278 38.8978 35.1197 38.8573 35.1305H38.8546Z" fill="#FF9A6C"/>
<path d="M39.7679 22.1576C39.7436 22.163 39.6977 22.0278 39.5814 21.836C39.4679 21.6441 39.276 21.4008 39.0004 21.2008C38.7247 21.0035 38.4328 20.8927 38.2166 20.8468C37.9977 20.7981 37.8544 20.7954 37.8544 20.7711C37.8544 20.7549 37.9977 20.717 38.2355 20.7414C38.4706 20.763 38.795 20.8657 39.0923 21.0792C39.3869 21.2954 39.5842 21.5738 39.6787 21.79C39.7733 22.0089 39.7842 22.1576 39.7679 22.1603V22.1576Z" fill="#FF9A6C"/>
<path d="M14.6573 22.3144L19.006 21.8739L26.3978 22.1982L29.7627 23.3576L25.0789 28.0982L18.8925 27.3279L16.1168 25.7549L14.6573 22.3144Z" fill="#FFBF9D"/>
<path d="M24.4222 3.8901C25.1843 3.40632 25.3681 2.28471 24.9546 1.48201C24.5411 0.67931 23.6654 0.192825 22.7735 0.0495827C21.4843 -0.158524 20.106 0.298232 19.1952 1.23606C18.7033 1.74147 18.306 2.40363 17.6384 2.63606C17.0519 2.83876 16.4033 2.65497 15.7898 2.73606C14.9655 2.84416 14.2574 3.43065 13.8357 4.14686C13.4141 4.86307 13.2384 5.6982 13.1411 6.52523C13.052 7.28198 12.9925 8.11441 12.4655 8.66846C11.952 9.20899 11.1412 9.32251 10.5033 9.70629C9.30332 10.4279 8.91414 12.2171 9.70602 13.3711C9.95737 13.7387 10.3222 14.0765 10.3493 14.5225C10.3763 14.9306 10.1141 15.2927 9.98981 15.6792C9.67359 16.6792 10.4925 17.8684 11.5412 17.9279C12.0709 17.9576 12.6357 17.7522 13.1114 17.9873C13.5817 18.2225 13.7574 18.79 14.0601 19.2225C14.6519 20.0711 15.8925 20.3927 16.8222 19.936C17.2114 19.7441 17.579 19.4306 18.0114 19.4603C18.4438 19.49 18.7817 19.8576 19.206 19.9387C19.7627 20.0468 20.2898 19.636 20.6195 19.1765C20.9492 18.7171 21.1789 18.1765 21.6033 17.7981C22.1573 17.3062 22.9357 17.1846 23.6357 16.9414C25.1816 16.409 26.4762 15.1792 27.087 13.663C27.6978 12.1441 27.6195 10.363 26.8735 8.90629" fill="#263238"/>
<path d="M16.3601 13.8522C16.2006 13.6819 15.9736 13.5225 15.7412 13.4441H15.7871C15.7439 13.4306 15.6979 13.4252 15.6547 13.4198C15.4844 13.3792 15.3142 13.3874 15.1709 13.4792H15.1763C14.9115 13.5765 14.679 13.7711 14.552 14.0225C14.3304 14.463 14.4115 15.0252 14.7115 15.4171C14.9709 15.7576 15.4196 15.9819 15.8358 15.8792C16.2196 15.7873 16.5033 15.4387 16.6114 15.0603C16.7304 14.6468 16.6547 14.1657 16.3601 13.8495V13.8522Z" fill="#455A64"/>
<path d="M26.3979 22.1981L27.206 7.33606C27.2385 6.682 26.7628 6.11174 26.1141 6.02525L19.4709 4.14418C17.3331 3.85769 15.8331 6.45498 15.6385 8.60362C15.4196 10.9901 15.2466 13.909 15.4791 15.7009C15.9466 19.3036 18.898 19.8468 18.898 19.8468C18.898 19.836 18.9196 23.5143 18.898 24.817L21.1088 29.6062L26.3979 22.1981Z" fill="#FFBF9D"/>
<path d="M16.9817 11.3036C16.9654 11.5468 17.16 11.7604 17.4114 11.7793C17.6627 11.8009 17.8817 11.6198 17.8979 11.3793C17.9141 11.136 17.7195 10.9225 17.4681 10.9036C17.2141 10.882 16.9979 11.0631 16.9817 11.3063V11.3036Z" fill="#263238"/>
<path d="M16.2438 9.89821C16.2979 9.96037 16.6546 9.71172 17.1492 9.72794C17.6438 9.73605 18.0005 10.0009 18.0546 9.94145C18.0816 9.91443 18.0276 9.80632 17.8708 9.6847C17.7195 9.56578 17.4573 9.44686 17.1492 9.43875C16.8411 9.43065 16.5789 9.53875 16.4249 9.64956C16.2681 9.76308 16.2141 9.86848 16.2411 9.89551L16.2438 9.89821Z" fill="#263238"/>
<path d="M21.4359 11.4198C21.4197 11.6631 21.6143 11.8766 21.8656 11.8955C22.117 11.9171 22.3359 11.7361 22.3521 11.4955C22.3683 11.2523 22.1737 11.0388 21.9224 11.0198C21.6683 10.9982 21.4521 11.1793 21.4359 11.4226V11.4198Z" fill="#263238"/>
<path d="M21.1059 10.1278C21.1626 10.19 21.5167 9.94134 22.0113 9.95756C22.5059 9.96567 22.8626 10.2305 22.9167 10.1711C22.9437 10.144 22.8896 10.0359 22.7329 9.91431C22.5815 9.79539 22.3194 9.67648 22.0113 9.66837C21.7032 9.66026 21.441 9.76837 21.2869 9.87918C21.1329 9.99269 21.0761 10.0981 21.1032 10.1251L21.1059 10.1278Z" fill="#263238"/>
<path d="M19.206 13.7469C19.2087 13.7198 18.9033 13.6577 18.406 13.5793C18.2789 13.5631 18.16 13.5333 18.1411 13.4469C18.1141 13.355 18.1708 13.2198 18.2357 13.0739C18.3627 12.7712 18.4978 12.455 18.6357 12.1225C19.1924 10.7685 19.6005 9.65228 19.5465 9.63066C19.4924 9.60904 18.9951 10.6901 18.4384 12.0442C18.3033 12.3793 18.1762 12.6982 18.0519 13.0009C18.0006 13.1442 17.9141 13.3036 17.9735 13.4955C18.006 13.5901 18.0951 13.6631 18.1762 13.6874C18.2573 13.7144 18.3276 13.7171 18.3897 13.7225C18.8897 13.7631 19.2005 13.7739 19.2032 13.7469H19.206Z" fill="#263238"/>
<path d="M18.9141 19.8332C18.9141 19.8332 21.106 20.0467 23.5357 18.6765C23.5357 18.6765 22.4979 21.344 18.9195 20.9062L18.9141 19.8332Z" fill="#FF9A6C"/>
<path d="M19.2466 14.9252C19.4953 14.5927 19.8925 14.3981 20.2628 14.4225C20.5196 14.4387 20.7709 14.5657 20.9034 14.7954C21.0385 15.0251 21.0358 15.3603 20.8682 15.5954C20.679 15.8603 20.3358 15.936 20.0574 15.8603C19.779 15.7846 19.5547 15.5873 19.3412 15.39C19.2817 15.336 19.2223 15.2792 19.1898 15.2008C19.1574 15.1224 19.1601 15.0197 19.2169 14.9495" fill="#FF9A6C"/>
<path d="M20.652 14.1306C20.571 14.1224 20.5547 14.6603 20.0845 15.0278C19.6142 15.3981 19.0439 15.3197 19.0385 15.3954C19.0304 15.4278 19.1629 15.5035 19.4034 15.517C19.6412 15.5332 19.9872 15.4657 20.2764 15.2414C20.5628 15.0143 20.6926 14.7062 20.7169 14.4873C20.7439 14.263 20.6872 14.1279 20.652 14.1306Z" fill="#263238"/>
<path d="M20.9438 8.08466C20.9898 8.2198 21.4844 8.17115 22.0627 8.25764C22.6438 8.33331 23.106 8.51439 23.187 8.39818C23.2222 8.34142 23.1438 8.21169 22.96 8.07656C22.7762 7.94142 22.4789 7.80899 22.133 7.76034C21.7844 7.71169 21.4654 7.76034 21.2519 7.83872C21.0357 7.9198 20.9249 8.0225 20.9465 8.08466H20.9438Z" fill="#263238"/>
<path d="M16.4681 8.19823C16.5519 8.31174 16.8952 8.20634 17.306 8.21175C17.7168 8.20364 18.06 8.30904 18.1438 8.19283C18.1816 8.13607 18.1303 8.02256 17.9816 7.91175C17.8357 7.80094 17.5871 7.70905 17.306 7.70905C17.0249 7.70905 16.7762 7.80364 16.6303 7.91715C16.4817 8.02796 16.4303 8.14418 16.4681 8.19823Z" fill="#263238"/>
<path d="M13.2358 7.60636C13.4034 7.06853 13.7088 6.55772 14.1817 6.24961C14.4412 6.08204 14.7412 5.97934 14.979 5.78475C15.4979 5.36583 15.6169 4.63881 15.9358 4.05503C16.3493 3.30098 17.1439 2.77395 17.9979 2.68747C18.7087 2.61449 19.4412 2.82801 20.1331 2.65233C20.6439 2.5226 21.0925 2.19017 21.6114 2.09288C22.6222 1.90098 23.5601 2.6253 24.2925 3.34692C24.2952 4.07124 23.7195 4.55232 23.1655 5.01719C22.6114 5.48205 21.8466 5.68205 21.1358 5.55232C20.5844 5.45232 19.979 5.17394 19.5006 5.46583C18.9979 5.77394 18.9763 6.5334 18.5331 6.91988C17.8952 7.47123 16.8844 6.95501 16.0763 7.19285C15.452 7.37934 15.0628 7.97393 14.6466 8.47663C14.2331 8.97933 13.6115 9.455 12.9872 9.27122C13.0277 8.70906 13.0682 8.1442 13.2358 7.60636Z" fill="#263238"/>
<path d="M20.8195 4.54958C21.2736 4.41985 22.1979 4.12796 22.4411 3.73336C22.9681 2.87932 23.8979 2.29824 24.8492 2.34959C25.8006 2.40094 26.7114 3.15229 26.906 4.15498C28.0546 4.16309 29.1762 4.88471 29.7303 5.97119C29.7978 6.10633 29.86 6.24687 29.9086 6.39281C30.2681 7.02254 30.3357 7.81172 30.0762 8.4901C29.9195 8.8982 29.6519 9.35496 29.8627 9.73874C30.0762 10.1306 30.6167 10.1414 31.0384 10.2874C31.7708 10.5387 32.2465 11.382 32.0843 12.1414C32.0248 12.4144 31.8951 12.6847 31.9519 12.9576C32.0113 13.2414 32.2546 13.4414 32.4411 13.663C32.9032 14.2144 33.0465 15.0144 32.8032 15.6928C32.56 16.3684 31.9384 16.8955 31.2303 17.0252C30.9086 17.0846 30.56 17.0711 30.2789 17.2414C29.96 17.4387 29.8195 17.8225 29.5951 18.1225C29.1627 18.6982 28.3492 18.9522 27.6654 18.7279C27.5276 18.6819 27.3978 18.6144 27.2762 18.5333C27.06 18.8333 26.7222 19.036 26.1438 19.036L26.2762 11.4766C26.2033 11.636 26.0654 11.7793 25.8168 11.836C24.6033 12.1117 24.4249 9.60901 24.6979 8.93334C24.26 8.54415 23.8141 8.14956 23.4789 7.65226C23.1438 7.15767 22.8492 5.80633 22.9195 5.19822C22.4817 5.22255 20.6195 4.60904 20.8168 4.55228L20.8195 4.54958Z" fill="#263238"/>
<path d="M25.9411 12.0873C25.9789 11.3198 26.9195 11.1549 27.587 11.5387C27.9519 11.7495 28.233 12.1738 28.1978 12.99C28.1086 15.1657 25.9438 14.6279 25.9411 14.5657C25.9411 14.5279 25.8951 12.9873 25.9411 12.0873Z" fill="#FFBF9D"/>
<path d="M26.641 13.7712C26.641 13.7712 26.6788 13.7982 26.741 13.8307C26.8031 13.8631 26.9085 13.8847 27.0247 13.8469C27.2572 13.7712 27.4653 13.4145 27.4923 13.0226C27.5058 12.8253 27.4734 12.6334 27.4085 12.4766C27.3491 12.3145 27.2518 12.1982 27.1356 12.1739C27.022 12.1415 26.9356 12.2091 26.9085 12.2685C26.8761 12.328 26.8896 12.3712 26.8761 12.3766C26.8707 12.382 26.8302 12.3388 26.8518 12.2496C26.8626 12.2064 26.8896 12.1577 26.9437 12.1172C26.9977 12.0766 27.0761 12.0577 27.1545 12.0712C27.322 12.0901 27.4653 12.2496 27.5356 12.4253C27.6139 12.6009 27.6572 12.8145 27.641 13.0361C27.6085 13.4739 27.368 13.8739 27.0491 13.9523C26.895 13.9847 26.768 13.9334 26.7058 13.8793C26.641 13.8226 26.6302 13.7739 26.6383 13.7712H26.641Z" fill="#FF9A6C"/>
<path d="M23.8141 3.96033C23.7978 3.98466 24.033 4.0225 24.2492 4.3225C24.4654 4.61979 24.5465 5.18736 24.4086 5.82789L24.3978 5.88195L24.4519 5.89546C24.9897 6.03059 25.5816 6.45762 25.8546 7.13059C25.9195 7.29545 25.9627 7.47924 25.9681 7.66032C25.9681 7.8441 25.9357 8.03869 25.9005 8.23599C25.8654 8.43329 25.8249 8.63869 25.8167 8.8549C25.8032 9.06842 25.86 9.31436 25.9897 9.49815C26.26 9.90896 26.6951 10.1117 27.0681 10.309C27.4519 10.5008 27.8086 10.6954 28.0789 10.9711C28.6302 11.5144 28.8762 12.2143 28.8924 12.7927C28.914 13.3792 28.7492 13.8441 28.6059 14.136C28.4627 14.4333 28.3411 14.5738 28.3519 14.5846C28.3573 14.5873 28.387 14.5549 28.4438 14.4873C28.4978 14.417 28.5762 14.3116 28.6573 14.1657C28.8194 13.8738 29.0059 13.4035 29.0005 12.79C29.0005 12.1846 28.7519 11.4468 28.1789 10.8684C27.8978 10.5738 27.5167 10.363 27.1384 10.1738C26.7654 9.97652 26.3546 9.77652 26.1194 9.41436C25.8789 9.08464 25.987 8.6522 26.0492 8.26302C26.0843 8.06572 26.1195 7.86572 26.1167 7.66032C26.1086 7.45221 26.06 7.26032 25.9897 7.07924C25.6897 6.35762 25.0573 5.91708 24.4816 5.78735L24.5249 5.85492C24.6546 5.18465 24.5519 4.59547 24.3059 4.28736C24.187 4.13331 24.0573 4.04952 23.9654 4.00898C23.8708 3.97114 23.8222 3.95493 23.8195 3.96033H23.8141Z" fill="#455A64"/>
<path d="M27.4548 14.5846C27.2954 14.4144 27.0683 14.2549 26.8359 14.1765H26.8819C26.8386 14.1603 26.7927 14.1576 26.7494 14.1522C26.5791 14.1117 26.4089 14.1198 26.2656 14.2117H26.271C26.0062 14.309 25.7737 14.5036 25.6467 14.7549C25.4251 15.1954 25.5062 15.7576 25.8062 16.1495C26.0656 16.49 26.5143 16.7144 26.9305 16.6117C27.3143 16.5198 27.5981 16.1711 27.7062 15.7927C27.8251 15.3792 27.7494 14.8981 27.4548 14.5819V14.5846Z" fill="#455A64"/>
<path d="M31.5491 42.7061L31.5897 33.5629L32.441 35.2521L37.7599 29.9656C37.7599 29.9656 35.1869 25.2846 33.9951 24.3792C32.8032 23.4738 28.1491 22.5305 27.8491 22.3549C27.8491 22.3549 26.6437 24.3873 22.887 25.5116C19.1303 26.6386 15.9816 21.79 15.9816 21.79L11.706 21.9792C11.706 21.9792 11.3438 28.3954 11.279 32.7873C11.26 34.0791 11.3357 35.2062 11.3682 35.9305C11.5087 39.1197 14.7276 44.6088 14.7276 44.6088C14.7276 44.6088 19.2951 46.2385 24.1302 45.6385C28.9627 45.0385 31.5518 42.7061 31.5518 42.7061H31.5491Z" fill="#455A64"/>
<path d="M11.706 21.9792C9.47627 22.4495 7.48168 25.2522 5.0871 30.7467L11.5898 35.5981L11.706 21.9792Z" fill="#455A64"/>
<path d="M31.8709 27.963C31.8709 27.963 31.8952 28.0657 31.9114 28.2495C31.9277 28.4359 31.9412 28.7035 31.952 29.0359C31.9736 29.7008 31.9709 30.6224 31.9087 31.6359C31.8466 32.6494 31.7385 33.5656 31.6385 34.2224C31.5871 34.5521 31.5412 34.817 31.5033 34.9981C31.4655 35.1791 31.4385 35.2791 31.4277 35.2791C31.4033 35.2764 31.452 34.8683 31.525 34.2062C31.5979 33.5467 31.6871 32.6332 31.7493 31.6251C31.8087 30.6143 31.8304 29.6981 31.8385 29.0359C31.8466 28.3711 31.8466 27.9603 31.8709 27.9603V27.963Z" fill="#263238"/>
<path d="M11.9089 26.5333C11.9089 26.5333 11.9089 26.663 11.8765 26.8928C11.8386 27.1549 11.7927 27.4793 11.7359 27.8603C11.617 28.6765 11.4548 29.8063 11.3629 31.0576C11.2684 32.3117 11.2738 33.4495 11.3035 34.2738C11.3224 34.6576 11.3359 34.9846 11.3494 35.2495C11.3602 35.4792 11.3629 35.6089 11.3494 35.6089C11.3386 35.6089 11.317 35.4846 11.2846 35.2549C11.2521 35.0252 11.2197 34.6927 11.1873 34.2792C11.1278 33.4549 11.1035 32.3063 11.1981 31.0441C11.2927 29.7819 11.4711 28.6522 11.6197 27.8387C11.6927 27.4333 11.7602 27.1036 11.8116 26.8793C11.8629 26.6522 11.8954 26.5306 11.9062 26.5306L11.9089 26.5333Z" fill="#263238"/>
<path d="M22.087 29.8791L22.3059 38.6088C22.3167 39.0548 21.9653 39.425 21.5194 39.4358L17.841 39.5196C17.4113 39.5304 17.0491 39.198 17.0194 38.7683L16.4248 30.1332C16.3924 29.6818 16.741 29.2926 17.1924 29.2737L21.2491 29.0926C21.7005 29.0737 22.0788 29.4278 22.0897 29.8764L22.087 29.8791Z" fill="#263238"/>
<path d="M18.8926 30.8737C18.9007 31.0602 19.0601 31.2062 19.2466 31.1981C19.4331 31.19 19.579 31.0305 19.5709 30.844C19.5628 30.6575 19.4034 30.5116 19.2169 30.5197C19.0304 30.5278 18.8845 30.6873 18.8926 30.8737Z" fill="white"/>
<path d="M16.6006 32.1277C16.6006 32.1277 15.6033 33.4196 15.2412 33.9899C14.879 34.5601 14.8195 36.3655 14.8195 36.3655L14.8358 37.6223L12.8439 38.5034L14.3817 42.7925L17.4033 40.179L20.4546 39.6061C20.4546 39.6061 21.8627 38.1574 22.0817 37.5088C22.3033 36.8601 22.2519 36.3628 22.2519 36.3628C22.2519 36.3628 22.8763 34.8385 22.9925 34.3061C23.1087 33.7737 23.0654 32.8331 23.0654 32.8331C23.0654 32.8331 22.6735 32.7385 22.3681 33.3899L22.8465 32.2872C22.8465 32.2872 22.533 31.4683 21.8492 32.3034C21.1654 33.1385 20.0357 34.5466 20.0357 34.5466L18.7276 35.6872L18.5519 35.5007C18.5519 35.5007 20.8303 32.4601 20.7519 31.9358C20.6736 31.4115 20.1736 31.4061 19.6736 31.9845C19.1736 32.5628 17.1357 35.425 16.8601 35.4655C16.5844 35.5061 16.4844 35.1223 16.4844 35.1223L16.6303 34.0628L16.7303 33.8358L16.5979 32.1223L16.6006 32.1277Z" fill="#FFBF9D"/>
<path d="M20.5303 36.3386C20.5303 36.3386 20.5654 36.3034 20.6222 36.2305C20.679 36.1575 20.7573 36.0521 20.8519 35.9196C21.0411 35.6548 21.2952 35.2818 21.5546 34.8575C21.8168 34.4332 22.0384 34.0413 22.1898 33.7548C22.2654 33.6115 22.3249 33.4926 22.3654 33.4115C22.406 33.3305 22.4249 33.2818 22.4195 33.2818C22.4168 33.2818 22.3871 33.3224 22.3411 33.4007C22.2871 33.4926 22.2249 33.6034 22.1465 33.7332C21.9843 34.0142 21.7573 34.4034 21.4952 34.825C21.233 35.2467 20.9871 35.6223 20.8087 35.8953C20.7249 36.0223 20.6546 36.1305 20.5979 36.2169C20.5492 36.2926 20.5222 36.3359 20.5276 36.3386H20.5303Z" fill="#FF9A6C"/>
<path d="M21.2383 37.6954C21.2546 37.7062 21.5302 37.3116 21.8546 36.8143C22.1789 36.317 22.4302 35.9089 22.4167 35.8981C22.4005 35.8873 22.1248 36.2819 21.8005 36.7792C21.4762 37.2737 21.2248 37.6846 21.2383 37.6954Z" fill="#FF9A6C"/>
<path d="M6.02226 31.4441C6.02226 31.4441 2.65201 40.2738 2.49255 43.3251C2.34931 46.1089 4.75741 47.7899 6.57632 47.5251C10.8466 46.9062 17.4033 40.1846 17.4033 40.1846L14.9384 37.5684L9.17901 40.1494L10.9709 35.1333L6.02497 31.4441H6.02226Z" fill="#FFBF9D"/>
<g opacity="0.3">
<path d="M37.6708 39.7628C38.3843 38.0196 37.8519 35.9088 36.5762 34.5196C35.3032 33.1304 33.3951 32.425 31.514 32.3602C28.3438 32.2494 25.1681 33.9412 23.4979 36.6385C21.8249 39.3358 21.7168 42.9304 23.2276 45.7223C23.2276 45.7223 24.7573 45.6493 25.8925 45.0709C27.0276 44.4925 37.6735 39.7655 37.6735 39.7655L37.6708 39.7628Z" fill="black"/>
</g>
<path d="M34.6815 47.3202C38.0907 45.288 39.2069 40.8768 37.1746 37.4676C35.1423 34.0584 30.7312 32.9422 27.322 34.9745C23.9128 37.0068 22.7966 41.418 24.8289 44.8271C26.8612 48.2363 31.2723 49.3525 34.6815 47.3202Z" fill="#3D73DD"/>
<path d="M30.4897 44.4953L26.7627 41.3737L27.8519 40.0737L30.3519 42.1683L34.1843 38.0926L35.4194 39.2575L30.4897 44.4953Z" fill="white"/>
</svg>
